<?xml version="1.0" standalone="no"?><!DOCTYPE svg PUBLIC "-//W3C//DTD SVG 1.1//EN" "http://www.w3.org/Graphics/SVG/1.1/DTD/svg11.dtd"><svg t="1559813359158" class="icon" style="" viewBox="0 0 1024 1024" version="1.1" xmlns="http://www.w3.org/2000/svg" p-id="3209" xmlns:xlink="http://www.w3.org/1999/xlink" width="12" height="12"><defs><style type="text/css"></style></defs><path d="M902.453225 458.944644 566.002426 458.944644 566.002426 122.503055c0-32.323173-21.61939-58.513672-48.266283-58.513672l-10.742668 0c-26.666336 0-48.266283 26.189476-48.266283 58.513672l0 336.441589L122.267183 458.944644c-32.313963 0-58.513672 21.618367-58.513672 48.275493l0 10.733459c0 26.657126 26.199709 48.275493 58.513672 48.275493l336.441589 0 0 336.441589c0 32.323173 21.618367 58.513672 48.284703 58.513672l10.723226 0c26.666336 0 48.285726-26.190499 48.285726-58.513672L566.002426 566.228065l336.450798 0c32.30373 0 58.513672-21.618367 58.513672-48.275493l0-10.733459C960.966896 480.56301 934.757978 458.944644 902.453225 458.944644z" p-id="3210" fill="#C5C5C5"></path></svg>