<?xml version="1.0" standalone="no"?><!DOCTYPE svg PUBLIC "-//W3C//DTD SVG 1.1//EN" "http://www.w3.org/Graphics/SVG/1.1/DTD/svg11.dtd"><svg t="1559813391596" class="icon" style="" viewBox="0 0 1024 1024" version="1.1" xmlns="http://www.w3.org/2000/svg" p-id="4238" xmlns:xlink="http://www.w3.org/1999/xlink" width="12" height="12"><defs><style type="text/css"></style></defs><path d="M819.152519 631.147634l96.728018-194.07309-50.133817-24.987091c-11.029194-41.123606-28.529777-79.745229-52.100612-114.864074-23.796986-35.456536-53.198619-66.549695-87.389326-92.414783-45.029566-34.063817-97.94166-58.238402-153.017022-69.90921-57.815777-12.251022-116.376521-11.073196-174.054151 3.498684-50.420343 12.739139-96.856955 34.987862-138.019447 66.12707-39.740096 30.062689-72.887031 67.091024-98.519828 110.056582-25.632797 42.964534-42.472324 89.722464-50.049906 138.973168-7.848759 51.013861-5.369288 102.44523 7.370875 152.865573 12.739139 50.41932 34.987862 96.855932 66.12707 138.019447 30.062689 39.739073 67.091024 72.887031 110.055558 98.518804s89.723487 42.472324 138.974191 50.048883c19.410072 2.986007 38.872333 4.476965 58.325383 4.476965 31.67235 0 63.304791-3.955078 94.54019-11.846816 65.059761-16.438391 124.847449-49.619094 172.900885-95.956446l-59.665915-61.876256c-37.290301 35.957957-83.727936 61.717643-134.291542 74.492598-160.059416 40.443108-323.183633-56.874335-363.626741-216.935798-40.442084-160.060439 56.875359-323.183633 216.936821-363.625718 88.565105-22.379707 181.205015-3.563152 254.156514 51.624774 48.568159 36.740786 83.824127 85.87381 102.941534 143.073556l-46.51336 21.233604L819.152519 631.147634z" p-id="4239" fill="#424242"></path></svg>