<?xml version="1.0" standalone="no"?><!DOCTYPE svg PUBLIC "-//W3C//DTD SVG 1.1//EN" "http://www.w3.org/Graphics/SVG/1.1/DTD/svg11.dtd"><svg t="1559813441516" class="icon" style="" viewBox="0 0 1024 1024" version="1.1" xmlns="http://www.w3.org/2000/svg" p-id="6136" xmlns:xlink="http://www.w3.org/1999/xlink" width="12" height="12"><defs><style type="text/css"></style></defs><path d="M170.666667 213.333333h128V170.666667a85.333333 85.333333 0 0 1 85.333333-85.333334h256a85.333333 85.333333 0 0 1 85.333333 85.333334v42.666666h128a42.666667 42.666667 0 0 1 0 85.333334h-42.666666v554.666666a85.333333 85.333333 0 0 1-85.333334 85.333334H298.666667a85.333333 85.333333 0 0 1-85.333334-85.333334V298.666667H170.666667a42.666667 42.666667 0 1 1 0-85.333334z m128 85.333334v554.666666h426.666666V298.666667H298.666667z m85.333333-85.333334h256V170.666667H384v42.666666z m0 170.666667h85.333333v384H384V384z m170.666667 0h85.333333v384h-85.333333V384z" fill="#424242" p-id="6137"></path></svg>