<?xml version="1.0" standalone="no"?><!DOCTYPE svg PUBLIC "-//W3C//DTD SVG 1.1//EN" "http://www.w3.org/Graphics/SVG/1.1/DTD/svg11.dtd"><svg t="1559997989725" class="icon" style="" viewBox="0 0 1024 1024" version="1.1" xmlns="http://www.w3.org/2000/svg" p-id="2273" xmlns:xlink="http://www.w3.org/1999/xlink" width="12" height="12"><defs><style type="text/css"></style></defs><path d="M768 841.142857q0-14.848-10.825143-25.746286t-25.746286-10.825143-25.746286 10.825143-10.825143 25.746286 10.825143 25.746286 25.746286 10.825143 25.746286-10.825143 10.825143-25.746286zM914.285714 841.142857q0-14.848-10.825143-25.746286t-25.746286-10.825143-25.746286 10.825143-10.825143 25.746286 10.825143 25.746286 25.746286 10.825143 25.746286-10.825143 10.825143-25.746286zM987.428571 713.142857l0 182.857143q0 22.820571-16.018286 38.838857t-38.838857 16.018286l-841.142857 0q-22.820571 0-38.838857-16.018286t-16.018286-38.838857l0-182.857143q0-22.820571 16.018286-38.838857t38.838857-16.018286l244.004571 0q11.995429 32.036571 40.301714 52.589714t63.122286 20.553143l146.285714 0q34.889143 0 63.122286-20.553143t40.301714-52.589714l244.004571 0q22.820571 0 38.838857 16.018286t16.018286 38.838857zM801.718857 342.820571q-9.728 22.820571-33.718857 22.820571l-146.285714 0 0 256q0 14.848-10.825143 25.746286t-25.746286 10.825143l-146.285714 0q-14.848 0-25.746286-10.825143t-10.825143-25.746286l0-256-146.285714 0q-23.990857 0-33.718857-22.820571-9.728-22.308571 7.972571-39.424l256-256q10.313143-10.825143 25.746286-10.825143t25.746286 10.825143l256 256q17.700571 17.115429 7.972571 39.424z" p-id="2274" fill="#424242"></path></svg>